<svg xmlns="http://www.w3.org/2000/svg" style="display: none;">
    <symbol id="help">
        <path d="M9,10.9a5.5,5.5,0,0,1,.7-2.3,6,6,0,0,1,2.2-1.9,6.6,6.6,0,0,1,3.2-.8,7.4,7.4,0,0,1,3.1.7,5.1,5.1,0,0,1,2.1,1.7,5.5,5.5,0,0,1,.7,2.4,4.8,4.8,0,0,1-.4,1.8,6.4,6.4,0,0,1-1,1.3l-2,1.9-.7.6a2.1,2.1,0,0,0-.4.6.8.8,0,0,1-.2.4,3.1,3.1,0,0,1-.2.8,1.3,1.3,0,0,1-1.4,1.3,1.3,1.3,0,0,1-1-.4,1.6,1.6,0,0,1-.4-1.2,4.8,4.8,0,0,1,.3-1.8,3.5,3.5,0,0,1,.8-1.3l1.4-1.3,1.1-1,.6-.8a2,2,0,0,0,.2-.9A2.1,2.1,0,0,0,17,9.1a2.9,2.9,0,0,0-1.9-.6,2.7,2.7,0,0,0-1.9.6,4.7,4.7,0,0,0-1,2,1.6,1.6,0,0,1-1.6,1.3A1.5,1.5,0,0,1,9.5,12,1.8,1.8,0,0,1,9,10.9Zm5.9,13.2a1.9,1.9,0,0,1-1.3-.5,1.7,1.7,0,0,1,0-2.6,1.7,1.7,0,0,1,1.3-.5,1.7,1.7,0,0,1,1.2.5,1.5,1.5,0,0,1,.5,1.3,1.5,1.5,0,0,1-.5,1.3A2.1,2.1,0,0,1,14.9,24.1Z"/>
    </symbol>
    <symbol id="arrow-right">
        <polyline points="10 22.5 20 15 10 7.5" style="fill: none;stroke: #000;stroke-linecap: round;stroke-linejoin: round;stroke-width: 2px;fill-rule: evenodd"/>        
    </symbol>
    <symbol id="arrow-left">
        <polyline points="20 7.5 10 15 20 22.5" style="fill: none;stroke: #000;stroke-linecap: round;stroke-linejoin: round;stroke-width: 2px;fill-rule: evenodd"/>    
    </symbol>
    <symbol id="add-file">
        <path d="M9.5,17.3H9.3a1.1,1.1,0,0,1-.3-.8V13.5H6.1a.9.9,0,0,1-.8-.4.9.9,0,0,1-.3-.7,1.1,1.1,0,0,1,.3-.8,1.1,1.1,0,0,1,.8-.3H9v-3a.9.9,0,0,1,.3-.7h.2a.7.7,0,0,1,.6-.2h.4l.4.3a.9.9,0,0,1,.3.7v3h3a.9.9,0,0,1,.7.3,1.2,1.2,0,0,1,.4.8,1,1,0,0,1-.4.7.8.8,0,0,1-.7.4h-3v2.9a1.1,1.1,0,0,1-.3.8l-.4.2h-.4Z"/>
        <path d="M25.9,9.6l-.2-.3-5-5-.3-.2H10A.9.9,0,0,0,9,5V6.5l1.1-.2.9.2V6h8v4a.9.9,0,0,0,1,1h4V24H11V18.3h-.9L9,18.2V25a.9.9,0,0,0,1,1H25a.9.9,0,0,0,1-1V10C26,9.8,26,9.7,25.9,9.6ZM21,9V7.4L22.6,9Z"/>
    </symbol>
    <<symbol id="check">
        <path d="M9,18a.9.9,0,0,1-.7-.3l-5-5a1,1,0,0,1,1.4-1.4L9,15.6,19.3,5.3a1,1,0,0,1,1.4,1.4l-11,11A.9.9,0,0,1,9,18Z"/>
    </symbol>
    <symbol id="close">
        <line x1="4" y1="4" x2="20" y2="20" style="fill: none;stroke: #000;stroke-linecap: round;stroke-linejoin: round;stroke-width: 2px"/>
        <line x1="20" y1="4" x2="4" y2="20" style="fill: none;stroke: #000;stroke-linecap: round;stroke-linejoin: round;stroke-width: 2px"/>
    </symbol>
    <symbol id="maximize">
        <path d="M19.2,3H4.8A1.8,1.8,0,0,0,3,4.8V19.2A1.8,1.8,0,0,0,4.8,21H19.2A1.8,1.8,0,0,0,21,19.2V4.8A1.8,1.8,0,0,0,19.2,3Zm0,16.2H4.8V8.4H19.2Z"/>
    </symbol>
    <symbol id="minimize">
        <path d="M19.2,3H4.8A1.8,1.8,0,0,0,3,4.8V19.2A1.8,1.8,0,0,0,4.8,21H19.2A1.8,1.8,0,0,0,21,19.2V4.8A1.8,1.8,0,0,0,19.2,3ZM4.8,15.6V4.8H19.2V15.6Z"/>
    </symbol>
    <symbol id="upload">
        <path d="M16.3,10H13v5.8a1.1,1.1,0,0,1-1,1,1.1,1.1,0,0,1-1-1V10H7.7c-.4,0-.6-.4-.5-.8l4.4-5.7a.5.5,0,0,1,.8,0l4.4,5.7C16.9,9.6,16.7,10,16.3,10Z"/>
        <path d="M21,19.7V20a1.1,1.1,0,0,1-1,1H4a1.1,1.1,0,0,1-1-1v-.7l1-5a1.1,1.1,0,0,1,1.2-.8A1,1,0,0,1,6,14.7L5.1,19H18.9L18,14.7a1,1,0,0,1,.8-1.2,1.1,1.1,0,0,1,1.2.8l1,5Z"/>
    </symbol>
</svg>

