<svg id="Layer_2" data-name="Layer 2" xmlns="http://www.w3.org/2000/svg" width="100" height="52.5" viewBox="0 0 100 52.5">
  <title>wave-logo-without-nub</title>
  <path d="M46.9,76l-3.1.3a31.6,31.6,0,0,1-3.2-.3,17,17,0,0,0,3.2-1A14.1,14.1,0,0,0,46.9,76Z" transform="translate(0 -23.8)" style="fill: #008aca;fill-rule: evenodd"/>
  <path d="M59.4,76l-3.1.3a31.6,31.6,0,0,1-3.2-.3,17,17,0,0,0,3.2-1A14.1,14.1,0,0,0,59.4,76Z" transform="translate(0 -23.8)" style="fill: #008aca;fill-rule: evenodd"/>
  <g>
    <path d="M40.6,76a29.6,29.6,0,0,1-3.1.3c-20,0-24-33.5-37.5-47a25.1,25.1,0,0,1,3.1-2.6h0C18.5,37.2,22,72.4,40.6,76Z" transform="translate(0 -23.8)" style="fill: #0068b1;fill-rule: evenodd"/>
    <path d="M43.8,75a17,17,0,0,1-3.2,1C22,72.4,18.5,37.2,3.1,26.7A14.1,14.1,0,0,1,6.3,25C23.3,32.1,26.7,67.9,43.8,75Z" transform="translate(0 -23.8)" style="fill: #789ca7;fill-rule: evenodd"/>
    <path d="M50,75a16,16,0,0,1-3.1,1,14.1,14.1,0,0,1-3.1-1,15.9,15.9,0,0,0,3.1-1.7A13.4,13.4,0,0,0,50,75Z" transform="translate(0 -23.8)" style="fill: #00c2f3;fill-rule: evenodd"/>
    <path d="M46.9,73.3A15.9,15.9,0,0,1,43.8,75C26.7,67.9,23.3,32.1,6.3,25a22.6,22.6,0,0,1,3.1-1h0C28,27.6,31.6,62.8,46.9,73.3Z" transform="translate(0 -23.8)" style="fill: #00cbeb;fill-rule: evenodd"/>
    <path d="M50,70.7a25.1,25.1,0,0,1-3.1,2.6C31.6,62.8,28,27.6,9.4,24a15.6,15.6,0,0,1,3.1-.2C32.5,23.8,36.5,57.2,50,70.7Z" transform="translate(0 -23.8)" style="fill: #ddd;fill-rule: evenodd"/>
  </g>
  <g>
    <path d="M53.1,73.3A13.4,13.4,0,0,1,50,75a13.4,13.4,0,0,1-3.1-1.7A25.1,25.1,0,0,0,50,70.7,18.6,18.6,0,0,0,53.1,73.3Z" transform="translate(0 -23.8)" style="fill: #bbd7eb;fill-rule: evenodd"/>
    <path d="M56.3,75a17,17,0,0,1-3.2,1A16,16,0,0,1,50,75a13.4,13.4,0,0,0,3.1-1.7A14.1,14.1,0,0,0,56.3,75Z" transform="translate(0 -23.8)" style="fill: #00c2f3;fill-rule: evenodd"/>
    <path d="M90.6,24C72,27.6,68.5,62.8,53.1,73.3A18.6,18.6,0,0,1,50,70.7C63.5,57.2,67.5,23.8,87.5,23.8A15.6,15.6,0,0,1,90.6,24Z" transform="translate(0 -23.8)" style="fill: #ddd;fill-rule: evenodd"/>
    <path d="M93.8,25C76.7,32.1,73.3,67.9,56.3,75a14.1,14.1,0,0,1-3.2-1.7C68.5,62.8,72,27.6,90.6,24Z" transform="translate(0 -23.8)" style="fill: #00cbeb;fill-rule: evenodd"/>
    <path d="M96.9,26.7C81.6,37.2,78,72.4,59.4,76a14.1,14.1,0,0,1-3.1-1c17-7.1,20.4-42.9,37.5-50A15.9,15.9,0,0,1,96.9,26.7Z" transform="translate(0 -23.8)" style="fill: #789ca7;fill-rule: evenodd"/>
    <path d="M100,29.3c-13.5,13.5-17.5,47-37.5,47a29.6,29.6,0,0,1-3.1-.3C78,72.4,81.6,37.2,96.9,26.7A25.1,25.1,0,0,1,100,29.3Z" transform="translate(0 -23.8)" style="fill: #0068b1;fill-rule: evenodd"/>
  </g>
</svg>
