<svg xmlns="http://www.w3.org/2000/svg" width="24" height="24" viewBox="0 0 24 24">
  <title>upload</title>
  <g id="upload">
    <g>
      <path d="M16.3,10H13v5.8a1.1,1.1,0,0,1-1,1,1.1,1.1,0,0,1-1-1V10H7.7c-.4,0-.6-.4-.5-.8l4.4-5.7a.5.5,0,0,1,.8,0l4.4,5.7C16.9,9.6,16.7,10,16.3,10Z" style="fill: #fff"/>
      <path d="M21,19.7V20a1.1,1.1,0,0,1-1,1H4a1.1,1.1,0,0,1-1-1v-.7l1-5a1.1,1.1,0,0,1,1.2-.8A1,1,0,0,1,6,14.7L5.1,19H18.9L18,14.7a1,1,0,0,1,.8-1.2,1.1,1.1,0,0,1,1.2.8l1,5Z" style="fill: #fff"/>
    </g>
  </g>
</svg>
